<svg width="64" height="64" viewBox="0 0 64 64" fill="none" xmlns="http://www.w3.org/2000/svg">
  <!-- 背景圆形 -->
  <circle cx="32" cy="32" r="30" fill="url(#bgGradient)" stroke="url(#borderGradient)" stroke-width="2"/>
  
  <!-- 磨砂玻璃效果 -->
  <defs>
    <filter id="glassEffect" x="-50%" y="-50%" width="200%" height="200%">
      <feGaussianBlur in="SourceGraphic" stdDeviation="1"/>
      <feColorMatrix type="matrix" values="1 0 0 0 0  0 1 0 0 0  0 0 1 0 0  0 0 0 0.3 0"/>
    </filter>
    
    <!-- 背景渐变 -->
    <radialGradient id="bgGradient" cx="50%" cy="30%" r="70%">
      <stop offset="0%" style="stop-color:#1a1a2e;stop-opacity:0.9"/>
      <stop offset="50%" style="stop-color:#16213e;stop-opacity:0.8"/>
      <stop offset="100%" style="stop-color:#0f0f23;stop-opacity:0.9"/>
    </radialGradient>
    
    <!-- 边框渐变 -->
    <linearGradient id="borderGradient" x1="0%" y1="0%" x2="100%" y2="100%">
      <stop offset="0%" style="stop-color:#6366f1;stop-opacity:0.6"/>
      <stop offset="50%" style="stop-color:#f59e0b;stop-opacity:0.4"/>
      <stop offset="100%" style="stop-color:#ef4444;stop-opacity:0.6"/>
    </linearGradient>
    
    <!-- 蓝色渐变 -->
    <linearGradient id="blueGradient" x1="0%" y1="0%" x2="100%" y2="100%">
      <stop offset="0%" style="stop-color:#3b82f6;stop-opacity:0.9"/>
      <stop offset="100%" style="stop-color:#1d4ed8;stop-opacity:0.7"/>
    </linearGradient>
    
    <!-- 黄色渐变 -->
    <linearGradient id="yellowGradient" x1="0%" y1="0%" x2="100%" y2="100%">
      <stop offset="0%" style="stop-color:#fbbf24;stop-opacity:0.9"/>
      <stop offset="100%" style="stop-color:#f59e0b;stop-opacity:0.7"/>
    </linearGradient>
    
    <!-- 红色渐变 -->
    <linearGradient id="redGradient" x1="0%" y1="0%" x2="100%" y2="100%">
      <stop offset="0%" style="stop-color:#f87171;stop-opacity:0.9"/>
      <stop offset="100%" style="stop-color:#dc2626;stop-opacity:0.7"/>
    </linearGradient>
    
    <!-- 发光效果 -->
    <filter id="glow" x="-50%" y="-50%" width="200%" height="200%">
      <feGaussianBlur stdDeviation="2" result="coloredBlur"/>
      <feMerge> 
        <feMergeNode in="coloredBlur"/>
        <feMergeNode in="SourceGraphic"/>
      </feMerge>
    </filter>
  </defs>
  
  <!-- 中心六边形 -->
  <polygon points="32,8 44,18 44,30 32,40 20,30 20,18" fill="url(#blueGradient)" filter="url(#glow)"/>
  
  <!-- 内部几何图形 -->
  <!-- 蓝色三角形 -->
  <polygon points="32,16 38,22 26,22" fill="url(#blueGradient)" opacity="0.8"/>
  
  <!-- 黄色菱形 -->
  <polygon points="32,24 36,28 32,32 28,28" fill="url(#yellowGradient)" filter="url(#glow)"/>
  
  <!-- 红色圆形 -->
  <circle cx="32" cy="36" r="3" fill="url(#redGradient)" filter="url(#glow)"/>
  
  <!-- 科技线条 -->
  <path d="M12,20 L20,20 M44,20 L52,20 M12,44 L20,44 M44,44 L52,44" stroke="url(#blueGradient)" stroke-width="1.5" opacity="0.6"/>
  <path d="M20,12 L20,20 M44,12 L44,20 M20,44 L20,52 M44,44 L44,52" stroke="url(#yellowGradient)" stroke-width="1.5" opacity="0.6"/>
  
  <!-- 装饰性点 -->
  <circle cx="16" cy="16" r="1.5" fill="url(#redGradient)" opacity="0.7"/>
  <circle cx="48" cy="16" r="1.5" fill="url(#redGradient)" opacity="0.7"/>
  <circle cx="16" cy="48" r="1.5" fill="url(#blueGradient)" opacity="0.7"/>
  <circle cx="48" cy="48" r="1.5" fill="url(#yellowGradient)" opacity="0.7"/>
  
  <!-- 外圈装饰环 -->
  <circle cx="32" cy="32" r="26" fill="none" stroke="url(#borderGradient)" stroke-width="1" opacity="0.3"/>
  
  <!-- 磨砂玻璃覆盖层 -->
  <circle cx="32" cy="32" r="30" fill="url(#glassOverlay)" filter="url(#glassEffect)"/>
  
  <defs>
    <radialGradient id="glassOverlay" cx="50%" cy="30%" r="70%">
      <stop offset="0%" style="stop-color:rgba(255,255,255,0.1);stop-opacity:0.2"/>
      <stop offset="50%" style="stop-color:rgba(255,255,255,0.05);stop-opacity:0.1"/>
      <stop offset="100%" style="stop-color:rgba(255,255,255,0.02);stop-opacity:0.05"/>
    </radialGradient>
  </defs>
</svg>
